<?xml version="1.0" encoding="UTF-8" standalone="no"?>
<!DOCTYPE svg PUBLIC "-//W3C//DTD SVG 1.1//EN" "http://www.w3.org/Graphics/SVG/1.1/DTD/svg11.dtd">
<svg width="100%" height="100%" viewBox="0 0 1080 1080" version="1.1" xmlns="http://www.w3.org/2000/svg" xmlns:xlink="http://www.w3.org/1999/xlink" xml:space="preserve" xmlns:serif="http://www.serif.com/" style="fill-rule:evenodd;clip-rule:evenodd;stroke-linejoin:round;stroke-miterlimit:2;">
    <g transform="matrix(1,0,0,1,-22364.6,-1919.16)">
        <g id="Flower" transform="matrix(1,0,0,1,22364.6,1919.16)">
            <rect x="0" y="0" width="1080" height="1080" style="fill:none;"/>
            <g transform="matrix(1.33511,0,0,1.33511,-3951.34,-373.613)">
                <g transform="matrix(1.05211,0,0,1.10312,-4526.28,-2736.87)">
                    <path d="M7282.22,3300.14C7225.67,3137.38 7234.25,2800.51 7234.25,2800.51C7234.25,2800.51 7312.03,2840.96 7404.69,2897.44C7454.54,2806.95 7499.48,2737.35 7499.48,2737.35C7499.48,2737.35 7544.41,2806.95 7594.26,2897.44C7686.93,2840.96 7764.7,2800.51 7764.7,2800.51C7764.7,2800.51 7773.28,3137.38 7716.73,3300.14C7711.48,3317.01 7704.12,3333.03 7694.95,3347.91C7694.82,3348.12 7694.69,3348.34 7694.56,3348.55C7686.55,3361.52 7677.06,3373.77 7666.19,3385.04C7650.54,3401.27 7632.61,3414.84 7613.16,3425.57C7594.03,3436.18 7573.13,3444.2 7550.99,3449.12C7533.94,3452.91 7516.66,3454.76 7499.48,3454.74C7482.29,3454.76 7465.01,3452.91 7447.96,3449.12C7425.82,3444.2 7404.92,3436.18 7385.79,3425.57C7366.34,3414.84 7348.41,3401.27 7332.77,3385.04C7321.89,3373.77 7312.41,3361.52 7304.39,3348.55C7304.26,3348.34 7304.13,3348.12 7304,3347.91C7294.83,3333.03 7287.48,3317.01 7282.22,3300.14Z" style="fill:rgb(238,238,238);"/>
                </g>
                <g transform="matrix(1.36733,0,0,1.36733,-7148.4,-3689.62)">
                    <path d="M7688.3,3101.96C7710.53,3030.95 7754.99,3030.95 7777.22,3066.45C7799.44,3101.96 7799.44,3172.96 7777.22,3243.97C7761.65,3297.22 7721.64,3350.47 7688.3,3385.97C7654.95,3350.47 7614.94,3297.22 7599.38,3243.97C7577.15,3172.96 7577.15,3101.96 7599.38,3066.45C7621.61,3030.95 7666.07,3030.95 7688.3,3101.96Z" style="fill:rgb(252,98,52);"/>
                </g>
                <g transform="matrix(0.655522,-0.655522,0.770893,0.770893,-4066.72,3277.2)">
                    <path d="M7273.66,3245.45C7287.93,3080.3 7499.48,2737.35 7499.48,2737.35C7499.48,2737.35 7621.63,2935.38 7686.55,3102.94C7883.6,3158.15 8116.48,3262.02 8116.48,3262.02C8116.48,3262.02 7713.18,3441.9 7518.96,3454.04C7512.53,3454.5 7506.04,3454.74 7499.48,3454.74C7436.93,3454.74 7380.28,3433.14 7339.26,3398.25C7298.23,3363.38 7272.83,3315.2 7272.83,3262.02C7272.83,3256.44 7273.11,3250.91 7273.66,3245.45Z" style="fill:rgb(238,238,238);"/>
                </g>
            </g>
        </g>
    </g>
</svg>
