<?xml version="1.0" encoding="UTF-8" standalone="no"?>
<!DOCTYPE svg PUBLIC "-//W3C//DTD SVG 1.1//EN" "http://www.w3.org/Graphics/SVG/1.1/DTD/svg11.dtd">
<svg width="100%" height="100%" viewBox="0 0 1080 1080" version="1.1" xmlns="http://www.w3.org/2000/svg" xmlns:xlink="http://www.w3.org/1999/xlink" xml:space="preserve" xmlns:serif="http://www.serif.com/" style="fill-rule:evenodd;clip-rule:evenodd;stroke-linejoin:round;stroke-miterlimit:2;">
    <g transform="matrix(1,0,0,1,-22371.8,-562.078)">
        <g id="Lavender" transform="matrix(1,0,0,1,22371.8,562.078)">
            <rect x="0" y="0" width="1080" height="1080" style="fill:none;"/>
            <g transform="matrix(1.0361,0,0,1.0361,-564.89,-1301.29)">
                <g transform="matrix(-0.832694,-2.66916,-6.20517,1.93582,12944.1,15.3998)">
                    <path d="M726.889,1786.14C744.027,1824.72 761.166,1860.38 761.166,1882.14C761.166,1892.55 741.524,1901 717.33,1901C693.137,1901 673.495,1892.55 673.495,1882.14C673.495,1860.38 730.877,1834.14 726.889,1786.14Z" style="fill:rgb(1,65,51);"/>
                </g>
                <g transform="matrix(0.964029,0,0,0.964029,29.427,53.6231)">
                    <g transform="matrix(-1,0,0,0.936222,1391.72,103.222)">
                        <path d="M587.708,1693.86C587.708,1652.24 613.681,1618.45 645.673,1618.45C677.665,1618.45 703.638,1652.24 703.638,1693.86C739.68,1673.05 781.929,1678.65 797.925,1706.36C813.921,1734.06 797.645,1773.45 761.602,1794.26C797.645,1815.07 813.921,1854.45 797.925,1882.16C781.929,1909.87 739.68,1915.47 703.638,1894.66C703.638,1936.27 677.665,1970.06 645.673,1970.06C613.681,1970.06 587.708,1936.27 587.708,1894.66C551.665,1915.47 509.417,1909.87 493.421,1882.16C477.425,1854.45 493.701,1815.07 529.743,1794.26C493.701,1773.45 477.425,1734.06 493.421,1706.36C509.417,1678.65 551.665,1673.05 587.708,1693.86Z" style="fill:rgb(93,92,168);"/>
                    </g>
                    <g transform="matrix(1,-1.22465e-16,-1.22465e-16,-1,170.009,3566.09)">
                        <path d="M577.531,1700.47C577.531,1655.2 608.064,1618.45 645.673,1618.45C683.281,1618.45 713.815,1655.2 713.815,1700.47C756.865,1686.48 801.252,1704.16 812.874,1739.93C824.495,1775.7 798.979,1816.09 755.928,1830.08C782.535,1866.7 779.435,1914.38 749.009,1936.49C718.583,1958.59 672.28,1946.81 645.673,1910.19C619.066,1946.81 572.763,1958.59 542.337,1936.49C511.911,1914.38 508.811,1866.7 535.417,1830.08C492.367,1816.09 466.85,1775.7 478.472,1739.93C490.094,1704.16 534.481,1686.48 577.531,1700.47Z" style="fill:rgb(110,109,177);"/>
                    </g>
                    <g transform="matrix(1,1.22465e-16,1.22465e-16,-1,521.619,3566.09)">
                        <path d="M577.531,1700.47C577.531,1655.2 608.064,1618.45 645.673,1618.45C683.281,1618.45 713.815,1655.2 713.815,1700.47C756.865,1686.48 801.252,1704.16 812.874,1739.93C824.495,1775.7 798.979,1816.09 755.928,1830.08C782.535,1866.7 779.435,1914.38 749.009,1936.49C718.583,1958.59 672.28,1946.81 645.673,1910.19C619.066,1946.81 572.763,1958.59 542.337,1936.49C511.911,1914.38 508.811,1866.7 535.417,1830.08C492.367,1816.09 466.85,1775.7 478.472,1739.93C490.094,1704.16 534.481,1686.48 577.531,1700.47Z" style="fill:rgb(109,108,177);"/>
                    </g>
                    <g transform="matrix(-1,0,0,1,1642.96,0)">
                        <path d="M577.531,1700.47C577.531,1655.2 608.064,1618.45 645.673,1618.45C683.281,1618.45 713.815,1655.2 713.815,1700.47C756.865,1686.48 801.252,1704.16 812.874,1739.93C824.495,1775.7 798.979,1816.09 755.928,1830.08C782.535,1866.7 779.435,1914.38 749.009,1936.49C718.583,1958.59 672.28,1946.81 645.673,1910.19C619.066,1946.81 572.763,1958.59 542.337,1936.49C511.911,1914.38 508.811,1866.7 535.417,1830.08C492.367,1816.09 466.85,1775.7 478.472,1739.93C490.094,1704.16 534.481,1686.48 577.531,1700.47Z" style="fill:rgb(93,92,168);"/>
                    </g>
                    <g transform="matrix(-1,0,0,1,1982.97,-5.68434e-13)">
                        <path d="M577.531,1700.47C577.531,1655.2 608.064,1618.45 645.673,1618.45C683.281,1618.45 713.815,1655.2 713.815,1700.47C756.865,1686.48 801.252,1704.16 812.874,1739.93C824.495,1775.7 798.979,1816.09 755.928,1830.08C782.535,1866.7 779.435,1914.38 749.009,1936.49C718.583,1958.59 672.28,1946.81 645.673,1910.19C619.066,1946.81 572.763,1958.59 542.337,1936.49C511.911,1914.38 508.811,1866.7 535.417,1830.08C492.367,1816.09 466.85,1775.7 478.472,1739.93C490.094,1704.16 534.481,1686.48 577.531,1700.47Z" style="fill:rgb(93,92,168);"/>
                    </g>
                </g>
                <g transform="matrix(-0.832694,2.66916,-6.20517,-1.93582,12944.1,3538.88)">
                    <path d="M726.889,1786.14C744.027,1824.72 761.166,1860.38 761.166,1882.14C761.166,1892.55 741.524,1901 717.33,1901C693.137,1901 673.495,1892.55 673.495,1882.14C673.495,1860.38 730.877,1834.14 726.889,1786.14Z" style="fill:rgb(2,92,72);"/>
                </g>
            </g>
        </g>
    </g>
</svg>
